<?xml version="1.0" encoding="UTF-8"?>
<svg xmlns="http://www.w3.org/2000/svg" xmlns:xlink="http://www.w3.org/1999/xlink" viewBox="0 0 107.16 107.16">
  <defs>
    <style>
      .cls-1 {
        mix-blend-mode: multiply;
        opacity: .72;
      }

      .cls-2 {
        isolation: isolate;
      }

      .cls-3 {
        fill: url(#radial-gradient);
      }

      .cls-4 {
        fill: url(#radial-gradient-2);
      }

      .cls-5 {
        fill: #e7e6e6;
      }

      .cls-6 {
        mix-blend-mode: overlay;
      }
    </style>
    <radialGradient id="radial-gradient" cx="-76.56" cy="-376.5" fx="-76.56" fy="-376.5" r="80.92" gradientTransform="translate(-136.53 350.12) rotate(40.76)" gradientUnits="userSpaceOnUse">
      <stop offset=".07" stop-color="#fff"/>
      <stop offset=".37" stop-color="#fcfcfc"/>
      <stop offset=".53" stop-color="#f4f4f4"/>
      <stop offset=".66" stop-color="#e6e6e6"/>
      <stop offset=".77" stop-color="#d3d3d3"/>
      <stop offset=".87" stop-color="#bababa"/>
      <stop offset=".94" stop-color="#a3a3a3"/>
    </radialGradient>
    <radialGradient id="radial-gradient-2" cx="-49.63" cy="-348.75" fx="-49.63" fy="-348.75" r="53.58" gradientTransform="translate(-136.53 350.12) rotate(40.76)" gradientUnits="userSpaceOnUse">
      <stop offset=".9" stop-color="gray"/>
      <stop offset="1" stop-color="#cecdcc"/>
    </radialGradient>
  </defs>
  <g class="cls-2">
    <g id="Warstwa_1" data-name="Warstwa 1">
      <g>
        <path class="cls-3" d="M94.16,88.56c-19.32,22.41-53.15,24.92-75.56,5.6C-3.82,74.84-6.32,41,13,18.59,32.32-3.82,66.15-6.32,88.56,13c22.41,19.32,24.92,53.15,5.6,75.56Z"/>
        <g class="cls-6">
          <path class="cls-4" d="M94.16,88.56c-19.32,22.41-53.15,24.92-75.56,5.6C-3.82,74.84-6.32,41,13,18.59,32.32-3.82,66.15-6.32,88.56,13c22.41,19.32,24.92,53.15,5.6,75.56Z"/>
        </g>
        <g class="cls-1">
          <path class="cls-5" d="M101.26,33.4c.02-.12-.21-.53-.22-.66,.05,0,.73,.01,.76,.13-.05-.15-.34-.09-.39-.19-.11-.59-.13-1.56-.65-1.27-.07-.82-.35,.23-1.31-1.53-.12,.11-.54-2.11-1.5-3.46-.37-.65-.82-.7-1.27-1-.61,.9-.06,1.58,.25,2.44-.89,.45-1.26,.97-.7,1.95,.2-.07,.36,.2,.48,.16-.22,.34-.4,1.44-.46,1.83,1.11-.52,.85,.87,1.36,1.65,.29,.45,1.36,.35,1.63,.71,.25,.33-.06,1.16,.23,1.58,.68,.98,.96,1.29,1.49,2.54,.35,.82,.78,2.3,1.24,2.91,.73-.64,.34-2.82-.11-4.43,.02,.01,.67-.16,.7-.15-.04-.07-.76,.1-.79,.04-.05-.17-.07-.41-.13-.57,.03-.11,.99-.05,1.19-.03-.15-.25-1.01-.71-1.19-1.14,.06-.05,.24-.05,.29-.14,.32-.53-.38-1.02-.93-1.37Z"/>
          <path class="cls-5" d="M95.23,26.37s-.08,.06-.07,.04c.04,.04-.01,.31,.03,.36,.33,.38-.1,1.3,.83,1.14-.2-.99-1.03-2.18-1.48-3.08,0-.01,.52-.28,.52-.29-.03-.06-.34,.02-.37-.05-.36-1.01-1.15-1.52-1.42-1.91,.15-.06,.86-.69,1.05-.7,.07,.16,.15,.4,.23,.56,.09-.1,.2,.23,.2,.11,.1-.05,.41-.29,.47-.38-.2-.32-1.28-.19-1.55-.44,.1-.04,1.08-.5,1.14-.51-.17-.26-1.22-.64-1.84-1.24-.05-.07-.11-.12-.17-.17-.1-.1-.24-.14-.35-.21-.86-.83-1.59-1.02-1.63-1.02,0,0-.13-.51-.13-.51-.05-.03-.05-.11-.12-.13,0,0,.29-.53,.29-.53-.15-.1-.34,.17-.51,.14,.54,.86-.26,1.48-1.33,.52,.16,.52,.28,.45,.4,.78-.03,.05,.61,.33,.58,.38-.02,0-.12-.44-.14-.45-.25-.6-.51-1.13-.87-1.24-.21-.19-.83,.61-1.02,.64-.39-.23-.54-.48-.47-.26-.03-.01,.35-.51,.32-.53-.31-.19-1.02,.16-1.3-.01-.55-.33-2.92-1.48-3.44-1.31,.42,.62,1.25,1.27,1.92,1.78,.64,.49,1.42,.78,2.17,1.11,.85,.37,3.29,.89,2.34,2.32,.55,.49,.5,1.27,1.29,.63,.51,.79,1.02,2.22,1.99,2.03,.23,.94,.85,.67,1.48,1.12,.15,.24-.12,.91-.03,1.01,.17,.18,.16,.56,.37,.71,.04,.07,.56-.49,.59-.45Z"/>
          <path class="cls-5" d="M77.98,30.51c-.19,1.4-.55,1.3,.71,2.48,1.07,1,1.63,.53,2.86,.73,1.01,.16,1.69,1.31,2.8,.6,1.08-.7,.03-1.33-.01-2.03,.1-.09,.52,.46,.62,.37,.16,.15,.93,.01,1.07,.13,0-.26,.08-.71,.11-.98,.26-.3-.09-1.46,.11-1.78,.42,.25,.61,.94,.85,1.38,.81-.77,.58-1.1,.28-1.85,.03,0,.43-.09,.46-.12-.07-.1-.29-.41-.36-.45-.02-.09,.08,.22,.07,.13,.03-.14-.18-.19-.17-.32,.2-.36,.57-.72,.11-1.39-.2-.29-.97-.11-1.32-.28-.17-.98,1.48-1.04,.73-1.88-1.62-2.44-2.9,.21-3.09,.77-.46-1.92-1.14-3.53-2.82-3.7-.46-.3-1.11-.11-1.9-.1-.91,0-3.15-.56-3.79,.06,.5,.98,1.51,.36,2.27,.67,0,0-.59,.81-.58,.81,0,0,.28-.2,.28-.2,.1,.06,.11,.2,.22,.26,.32,.27,.71,.19,1.25,.09,.13,.06,.64,0,.76,.07,.3,.74,.44,2.32,1.21,2.05,.41,.46,.24,.19,.36,.91-.4,.12-1.5-.89-1.54-.93,.01,.08-.44-.05-.72,.63-.18-.2-.02,.16-.11,.12-.06-.14-.02-.38-.08-.53-.05-.41-.09-.84-.51-1.31-.11-.32-.45-.92-.45-.92-.23,.19-.46,1.07-.65,.87-.06,.05,.21-.23,.18-.17-.54-.05-.87-.05-.92,.55-.07,.82,2.31,1.25,2.11,2.23-.07,.09-.61-.05-.66,.03-.39,0-.73-1.01-1.28-.45-.03,.03-1.11,2.18-1.08,2.31,.2,1.03,1.77,1.63,2.62,1.13Z"/>
          <path class="cls-5" d="M92.17,33.81c-.05,.04-.15,.13-.21,.15,.24,.52,.87,.74,1.19,1.16-.02-.02-.33,.18-.35,.17,.1,.12,.09,.78,.22,1.45,0,.01,.59,.08,.59,.09-.37,1.44-1.08,.24-2.11,0-.24,.94,.77,1.02,1.06,1.71,.22,.51,.3,1.22,.54,1.81-.1,.08-.78,.41-.86,.43-1.07-1.39-.77-1.86-1.17-1.48-.4,.18-1.01-.47-1.22-.1-.57-.56-1.34-.43-1.83-.05-1.83-.13-4.43,1.01-3.55,1.76-.37,.02-.87-.29-.93-.32,.1-.13,.2-.23,.21-.34,.05-.18,.66-.52,.21-.85,0,.08-.28,.97-.29,1.03-.53-.19-1.76-.34-1.63,.65,.39,.24,1.15,1.02,1.62,1.8,.23,.53,.73,.81,.76,1.27-.02,.1,.29,.58,.24,.67-.16,0-.53-.28-.43-.14-.02,.02-.48,.07-.5,.08-.02-.3,.23-.62,.08-.88-.11-.65,0-1.15-.71-.19-.54,.73-.16,2.17,.57,2.65,0,.08-.46-.17-.45-.1-.17,.31-.15,1.12,.03,1.43,0,.05,.7-.69,.7-.65-.25-.12-.85,.51-1.06,.39-.15-.09-.71-.38-.89-.56-.63-1.34,.31-4.12,.04-5.19-.74,.61-.8,.81-.77,.24-.07,.04-2.24,2.29-2.48,2.64,.1-.17,.56-.46,.54-.86,.03-.11,.15-.41,.1-.73-.01,0-1.09,.22-1.1,.23-.07-.47-.21-1.12-.32-1.52,.15,.09,.85-.06,.93-.07,.55-.03,.41-.56,1.02-.65-.11-.34-.1-.53-.27-.68-.06-.1-.37-.17-.87-.32,.83-.53,.72,1.28,.98-.83,.03-.12,.31-.23,.3-.33,0-.05,.26-.17,.26-.22-.01,0-.63,.09-.64,.09-.09-.5-.59-.55-1.1-1.08-.39,.25-.38,.9-.51,1.36-.42-.17-1.03-.76-1.3-.95-.37-.26-.67-.52-.86-.92-.68,.22-1.33,.96-1.08,1.62-.04,.03,.33-.6,.29-.58-.41-.18-.51-.18-.85-.63-.2-.45-.71-.83-.92-1.01-.01,.02,.42-.05,.41-.03-.2-.43-.97-.61-1.16-1.21-.97,.42-.31,1.26-.41,1.31-.99-.63-2.12,.57-2.27,.51,.06-.04,.51,1.19,.78,1.44-1.59-1.11-1.21,1.52-1.02,1.9-.55-.13-1.07-.69-.75,.2-1.48-.51-1.93,.13-2.77,.14,.09-.07-.13-.09-.04-.12-.07-.89-.31-2.05-1.15-.71-.27-.11-.03-.13-.12-.31,.17-.05-.23-.42-.27-.69,1.02-.57-.5-1.62-.97-2.24-.18,.25-.61,.66-.72,1-.23-.54,.04-1.37-.21-1.87-.87,.17-.31-1.36-.66-1.88-.53-.79-1.36-.46-2.3-.8,.29-.42,.59-.83,1.04-1.07-.34-1.06-.72-.38-1.39-.44-.57-.06-1.29-.97-1.98-.76,.06,.22,.61,1.09,.69,1.31-.08-.01-.14,0-.19-.05-.11,.29-.58,.38-.81,.58-.36-.44,.17-1.39,.52-1.81-.5-.09-.95,.42-1.09,.84-.52-.57-.92-1.36-.94-1.71-.61,.22,.4,1.94-1.01,.9,1.09-3.88-.6-.61-1.32,1.62-.31-.4-.66-.96-.95-1.4-.29,.26-.73,.46-.94,.85-.1-.19-.85-.72-.93-.92-.16,.57,.35,2.85-.72,2.56-1.08-.3-.15-1.72-.19-2.44-.68,.48-1.67,.25-2.23,.45-.12-.72,.11-1.83-.62-1.66,.47,1.11-.39,1.89-.66,3.02,0,.04,.21-.26,.2-.22-.36,.1-.59,.6-1.17,.32-.05,.3-.73,.62-.83,1.52-.48,.26-.2,.95-.36,1.15-.46,.54,.24,1.22-.98,1.16-.59-.03-.71-1-1.42-.6-1.27,.7,2.56,2.07,2.78,2.78-.45,.38-1.21,1.59-.73,2.23-.02,0,.21-.27,.17-.19,.06,.1,.09-.17,.11-.22,.03,0,.02,.53,.05,.53,.06,.07,.59-.19,.66-.14-.01,.36-.8,.99-.78,1.11-.42-.78,.15,.37,.14,.38-.02-.43,.38-.02,.96,.18-.46,.36-1.23,1.17-.71,.57,.76,.08,1.77,.59,2.12,1.2-.05,.02-1.09,.38-1.14,.4,.28,.88-.74,.9-.47,1.74,.25,.79,1.64,.38,2.22,.21,.42,1.47,.71,2.77,2.3,2.64-1,.21-1.34,1.66-2.54,2.33,.33,.94,.27,1.02,1.58,1.37,.48-1.89,.98-2.05,1.98-2.1-.03,.07,.15-.04,.1,.03,.32,.42,.19,.08,.64-.19,0,0,.66,.92,.64,.91-.12,.42-.59,.66-.98,.9,.32,.84,1.23,1.37,1.93,1.82-.25-.63-.19-1.46,.47-1.51-.48-.56-.43-1.12-.21-1.48,.78-.18,1.64,.38,2.52,.05,.5,.82-3.63,.63,.35,2.04-.41,.38-.24,.59-.36,.96-.16,0-.4-.3-.57-.34-.33-.62-.69-.73-1.2-.16,.3,.42,.1,.68,0,1.11-.21-.09-.2-.59-.48-.65-.39-.22-.81-.24-1.24-.45-.06-.09-.31,.11-.37,.02-.05,.04-.2,.57-.27,.6-.13-.06-.04-.63-.17-.68-.09-.49-.6-.55-1.04-.41,.23-.26-.37-.38-.46-.19-.06-.02,.05,.15-.01,.13-.12-.43,.23-.65,.13-1.08-.18,.28-1.07-.07-1.13,.25-.11,.16,.43,.57,.34,.72-.99-.29-1.84-.65-2.25-.38-.11-.14,0,.43-.07,.26-.85,.45-1.54-.51-2.31-.02,.55,.03,.67,.02,.88,.62-.11,.06-.03-.24-.14-.16,.46,.13,.27,.76,.58,.99-.04,.19-.13,.69-.18,.94-.48-.14-1.15-.22-1.49,.15,.29,.3,.48,.83,.68,.91,0,.06,0-.32,.03-.31-.11,.23,.17,.63,.15,.97-.17,.04,.85-.16,.98,.19-.26,.17-.33,.97,.05,1.11-.14-.03-.22-.56-.47-.62,.01,0,.32,.08,.33,.06,.08-.1-.14-.45-.24-.31,.04,.05-.07,.29-.03,.34-.09-.03-.24-.25-.26-.29-.31,.32-.16,1.05,.35,1.36-.08,.23,.07-.38-.06-.3-.09,0,.09,.12,0,.12-.07-.03-.25,.62-.34,.54-.03,.06,.06,.26,.02,.31-.33,.02-.99,.08-1.34,.15-.02-.23-.1-.87,.1-.45-.11,.03-.34-.15-.44-.11-.21-.14-.54,.48-.69,.21-.39,.21-.58,.31-.97,.53-.1-.06-.77-.4-.88-.42-.16-.91,.91-2.17,.66-3.08-.57,.46-1.67,1.55-2.19,2.23,0-.02-.47-.19-.48-.21,.11-.34,1.03-.59,1.12-1.15,.11-.09-.09-.24-.06-.35,.31-.26,.5-.42,.38-1.1,1.18,.81,.99-.61,1.27-1.26,.28-.66,1.24-.89,.23-1.74-.14,.25-.5,.44-.59,.78-.3-.39-.24-.48-.55-.84,.68-.69-.7-1.43-1.38-.84-1.01,.88,0,.88-1.74,1.08-.89,.1-1.84,.55-2.47-.29-.8-1.07,.47-1.17,.95-2.1-1.41-1.14-.41-1.27,.07-2.59,.09-.24-.05-.71,.02-.99,.08-.32,.16-.62,.18-1,.04-.73-.37-.52-1.02-.33,0,0-.42-.79-.42-.79,.56-.53,.19-1.14-.51-1.06-.27-.3-.3-1.33-.33-1.73-.04-.61,.22-.49-.22-1.09-.74,.83-.74,1.57-.46,2.68,.05,.57-.03,1.73-.04,1.74-.31-.26-.33-.74-.64-.55,.19-.56-.29-.83-.6-1.23,.02-.11,.76-1.29,.65-1.24,.06,.04-1.2-.46-1.2-.43-.7-.83-.64,.15-.75,0,.16-.13-.7-1.24-.5-2.01,.2-.28,.44-.65,.58-.95,.06-.05,.51,.12,.58,.09-.05,0-.02-.04-.06-.04,.08-.2-.29,.19-.27,.09,.13,.15,.31-.3,.41-.11-.1-.72-.34-.62-.8-.39,0-.01-.47,.09-.48,.08,0-.02,.45-.11,.4-.04-.09,.05,.05,.31-.03,.37,.27-.26-.06-1-.26-1.43-.33-.72-.32-.2-.82,.14,0-.14-.14-.62-.14-.75-2.02,.39-1.89-2.12-3.18-2.91-.06,.46,.63,2.49-.12,2.45,.05-.07,.06-.3,.14-.38-.11-.13-.46-.1-.72-.11-.3-.77-.72-2.76-1.74-1.77,.02,.12,.72,.22,.76,.33,.2-.03-.03,.96,.2,.92-.1,.25,.73,.25,.79,.53-.05,.04-1.02,.4-1.03,.47,.05,.02,.69-.28,.74-.26,.1,.34-.24,.77-.13,1.1,.03,.47,.59,1.45-.58,1.18-.04,.12-.83-2.35-.8-2.62-.28,.29-.53,.21-.81,.5,0-.4-.3-1.74-.43-2.06-.22,.38-.31,.48-.52-.13-.8,.21-2.37,2.88-2.26,2.08-1.31,1.08,2.12,.47,2.38,.27,.67,1.06-2.51,1.52-2.66,1.37-.1,.11,.15,.27,.09,.37-.36,.29-.1-.14-.06,.27,.05-.05-.31,.07-.26,.04-.08,.41-.28,1.15-.37,1.59-.35-.48-.52-.92-.85-1.41-.07,.63-.14,.52-.77,.79-.52-.63-.49-1.66-1.39-1.32-.97,.37,.11,1.38,.26,1.97,.03,.11-.01-.17,.05-.01-.26-.25-.83,.32-1.41,.88-.18-.15-.45-.56-.52-.79,.08-.09-.48,.07-.4-.03-.27-.5-.69-1.24-1.12-.49-.24,.42,.27,1.3,.5,1.37-.14,.29-.05,.63-.13,1.07-.49,.64-.1,1.77,.6,2.74,.43,1.17,1.24,2.21,1.45,2.7-.03,.06-.18,.43-.24,.47-.96-.68-1.12-3.46-2.38-3.46,.32,.51,.89,1.72,.8,2.35-.14,.97-.38,.48-.73-.3-1.82,.98,.42,1.45,.6,2,.03,.1,.45-.2,.35-.04-.63-.21-1.65-.19-2.28,.36,.32,.56,.86,1.12,1.34,1.32,.03,.46,1.12,.95,1.03,1.43-.24-.15-.51-.69-.76-.99-.08,.02-.14-.23-.24-.24-.09-.07-.45,.65-.52,.61-.03,.03-.04-.12-.06-.08-.43-.15-.81-.41-1.16-.09-.64,.58,.43,1.65,1.1,1.17,.06,.05,0-.28,0-.31,.07,.22-.43,.61-.48,.94,.15-.06,1.07-.76,1.23-.83,.29,.25,.62,1.1,.67,1.48-.03,0-.21-.04-.23-.03-.09-.27-.46-.06-.84-.18-.13,.11-.22-.67-.33-.57-.16-.11-.56-.23-.69-.37-.24,.31-.46,.59-.89,.68-.1-.05,.15-.06,.07-.09-.04-.05-.07,.38-.09,.33,.27-1.28-.44-2.67-.91-3.98,.12-.63-.35-.92-1.13-1.92,.52-.31,1.59-.93,1.5-1.58-1.15,.02-1.44-1.31-1.41-2.28,0,0-.25,.07-.25,.07,.72,.03,.45-1.2,.87-1.54,.11-.05,.43-.34,.55-.39,.72-.08,.98,1.65,1.55,.61,.09,.16,.82,.72,.91,.9,.93-1.51-1.15-2.21-1.68-3.26-.51-1.03-1.29-1-.65-1.73,.36-.41,1.98-.72,1.29-1.55-.77,.13-1.39,.95-1.94,1.38-.13-.06,.28-.19,.23-.23-.02-.03-.25,.62-.26,.61,2.19-.96-.52-3.64-1.94-1.4-.26,.41-.44,2.33-1.13,2.2-.99-.18,.31-2.19,.52-2.68-.22,.2-.82,.3-1.05,.49,.02-.09,.27-.6,.36-.84-.18,.11-.33,0-.52,.1-.49-.81,.41-1.04,.57-1.82,.15-.69-.96-2.03-.87-2.73-.31,.9-.56,1.75-.73,2.76-.13,.77,.63,1.33,.32,2.09-.6,1.46-1.66,2.58-1.42,4.14-.11-.08,.07-.12-.03-.21-.41,.3-.22,.73-.29,1.15-.53,1.41-.6,3.35-.72,5.2-.13,.35-.52,.72-.61,1.07-.25,.92,.42,1.31,.46,2-.01,.32-.76,.6-.78,.82-.03,.2,.5,.54,.43,.77,0,0-.92-.27-.93-.28-.01,.04,.24,.17,.23,.21-.03,.09-.24,.13-.26,.23-.21,.74-.13,3.78,1.01,3.5,.01,.58,.88,1.04,.61,1.65-.08-.04-1.08-.04-1.17-.13,0,0-.24-.28-.24-.28-.02-.11,.8-.88,.75-.99,.25,.21,.32,.87-.32,.14-.12,.07-.52-.38-.53-.3-.02-.04,.88,.53,.86,.49-.07,.26-.3,.43-.29,.74-.11,.06-.72,.09-.79,.15,.14,.41,.69,.83,.93,1.31,.25,.83,.61,1.37,.89,1.51-.02,0,.26,.46,.43,.32,0,0-.63-.78-.63-.78,.02-.02,.76,.52,.78,.5,.58-1.86,1.11-3.09,1.7-1.6,.17,.06-.18,.69-.13,1.41-.03,.48,.1,1.03,.27,1.28,.02,.1,.22,.08,.24,.17,.02-.05,.34,.25,.36,.19,.02,.01-.85-.25-.83-.24,.03,.54,.69,.51,.92,.06,.24,.22,1.3,1.75,1.17,2.55-.17,.13-.89-.37-1.29-.56-.59-.27-1.35-.96-1.91-1.4,.09,.31,.36,.25,.41,.61-.69-1.46-1.96-.92-2.6-2.58-.03,.31,.47,.71,.49,1.2-.04-.01-.91,.03-.95,.02,.05,.08,1.03,.06,1.07,.15,.09,1.55-.21,3.69,.2,4.58,0,0,.32-.45,.41-.47,.07,.05,1.03,1.74,.57,1.93-.47-.66,.11-.69-.22-1.04-.18,.13-.44,.49-.47,.8,0,0,.75,.12,.75,.12-.26,1.56,.79,3.94,1.39,5.49,.11,.28-.56,1.87-.36,2.04,.02,.02,.42-.45,.45-.44,.24,.57,.46,.93,.51,1.08,.27-.26,.24,.28,.31,1.09-.13-.07,.3-.04,.17-.1-.05-.09,.13-.43-.02-.66,.07,.14-.52,.57-.46,.7-.04-.02-.08-.4-.12-.43-.38,.66,.32,1.77,.9,2.06,.08,.19,.07,.11,.13,.26,.19,.62,1.06,1.03,1.35,1.65,.24,.54,.78,2.19,.83,.59,.07,.05,.53-.03,.64,.05,.05,.15,0,.32,.04,.46,.02-.07-.13,.16-.11,.07,.17,.15,.31,.19,.49,.37,.4,.86,.62,1.7,.62,1.07,.05,.12,.22,.35,.18,.42,.17,.36,1.41,.54,2.2,1.06,.08,.1-.15,.59-.06,.7,.11,.07,.36,0,.46,.06,.5,.32,.51,.83,.74,1.29,.01,.21,.17,.29-.08,.49,.3,.46,1.26,.29,1.6,.68,.03,.12-.16,.5-.04,.58,.12,.25-.3,.7-.17,.95,.46,.85,1.54,1.15,2.42,1.8-.07-.15-.48-.19-.5-.35,.33-.14,.61,.36,.35-.44,.01-.12,.15-.7,.17-.81,.72,.53,1.28,1.62,1.53,2.42-.03,.02-.45-.14-.47-.11-.03-.02-.45,.28-.48,.29,.03,.02,1.07-.08,1.09-.06,0,.07-.4,.13-.29,.22,.04,.09-.28,.61-.2,.76,.06-.04,.15-.18,.12-.27,.95,.59,3.51,1.66,5.5,2.6,0,0-.33,0-.33,0,.39,.52,.73,1.58,1.71,.5-.09-.15,.03,.54-.05,.39,.36,.22,1.43-.38,1.63-.17-.32-.53-2.09-.83-2.3-1.57,.13-.13,.65-.08,.75-.12,.09,.02,.04,.16,.11,.15,.51,.25,.7,.92,1.37,.89,0-.07,.26-.02,.28-.1,.1,.12,.53,.4,.54,.4-.04-.05-.44,.17-.51,.08,.05-.17,.13-.78,.15-.94,.32,.29,.87,.89,1.17,1.2-.03,.08-.44,.52-.49,.59-.24,0-.22-.19-.54-.14,.61,.68,.58,1.23,.77,1.41,.07,0,.43,.56,.5,.56,0-.03-.16-.82-.13-.84,.31,.18,.68,.27,1.05,.42,.34,.14,1.72,.59,2.23,.73-.5-.79-1.95-1.02-2.39-1.92-.01-.09,.03-.18,.02-.31,.38,.06-.01-.44,.27-.47-.29-.39-.01-.58-.33-.93,.55-.02,1.03,.53,1.55,.61,.2-.55-.03-1.25,.28-1.48-.15,1.71,4.24-.62,2.07,1.69,.56,.04,4.59-.5,3.04,1.15-.63,.67-2.17-.06-1.63,1.47,.18,.5,.93,.82,1.34,1.12,.43,.53,1.54,.51,2.17,1.03,.93,.95,1.55,1.66,3.06,2.15,.79,.25,1.66,1.34,2.33,1.5,.7,.17,1.3-.48,2.03-.38-.27-.16-.63-.36-.85-.58,.15-.15,.55,.28,.75,.25,.1,.03,.22,0,.28-.06,.68-.01,1.74,0,2.35-.19-.2-.49-1.34-1.02-1.8-1.17,.53-.5,.38-1.18-.33-1.35,.36-.89,1.19-.38,1.77-.69,.36-.2,.36-.9,.71-1.18-.37,.04-.17-.17-.57-.32-.07-.03,0-.89-.28-.97-.36-.11-1,1.16-1.3,1.09-1.95-.43-.93-1.51,.13-2.21-.47-.89-2.81,1.77-4.1,1.14-2.32-1.13,.12-2.09,.71-3.02,.33-.23,.71-.22,.88-.36,.15-.01,.39-.26,.53-.23-.13-.37-.57-.08-.94-.26-.04,.02-.09-.42-.13-.41,.09-.07,.79-.15,.86-.22-.13-.17-.87-.08-1.14-.16,0-.03,.04-.19,.04-.23-.13,0-.18-.53-.26-.53-.13-.03,0,.05-.13,.03-.08-.12-.06,.05-.14-.08-.05-.18-.42-.57-.4-.75,.51,.3,.62,.89,1.21,.9,.11-.59-.06-.93-.51-1.17,.02-.11-.17-.6-.11-.71,1.03-.13,1.6,.16,2.66,1.02,.81,.65,1.81,1.9,.59,2.37,.11,1.25,.38-.2,.95-.42,.96-.37,1.53-.19,2.57,.14,.56,.18,1.39,.09,.74,1.02-.13,.19-.35,1.04-.66,1.02-.59-.29-.73-.82-.98-.64,.02,.02-.31-.88-.29-.86-.07-.01,.23,.49,.17,.49,.33,.92,.88,.91,1.67,.99,.18,.03,.29,.54,.47,.56,.18,.03,.59-.48,.75-.41,.17,.22,.06,.77,.3,.87-.08,.02-.11-.16-.19-.13,.04,.17,.22,.48,.44,.42,.36,.34,.72,.18,1.17-.07,.27,.03,0-.16-.01-.38,0,0,.05,.3,.05,.3,.14,.28,.82-.22,.94,.06,.42-.63,1.14-.69,1.65-1.09,.56-.26,.9-.97,1.44-1.28,.16-.05,.56,.37,.74,.33,1.35-.34,3.47-.84,4.01-2.35-.44,.44-.1,.24-.45-.14,.19-.16-.11-.17-.05-.24-.46-.6-.15-.58-.28-.88,.06-.53,.16-1.44,.29-1.79-.45-.01-1.12,1.1-1.32,1.62-1.13-.59,.19-2.63,.12-3.63-.09-1.12-1.08-1.89-1.89-2.73-1.24,.67-1.21,2.02-2.79,.75-.12,.51-.44,.14-.94,.23-.38,0-1.1,.21-1.35,.18,.29-.17,2.21-1.66,2.2-1.85-.07-.74-1.02-.57-1.4-.2-.01-.02-.07-.07-.09-.09-.15,.14-.63-.03-.58,0-.06,.1,.38,.03,.34,.16-.36-.42-.5-1.04-.87-1.3-.14-.1-.65,.2-.77,.22-.78-1.01-1.26-2.2-2.27-2.38,.02-.03-.51,.57-.49,.54-.3-.67-.38-.76-.81-.27,0,0-.32,.42-.33,.41-.67-.52-.81-1.32-1.49-.69,.36,.79,.36,.78,.48,1.34,0,.09,.82,.1,.83,.19,0,.05-.26,.16-.26,.22-.08,.89-.98,.5-.2,1.24,.38,.36,.09,.99,.4,1.08,.19,.26,.3,.47,.55,.82,0,.21,.14,.44,.33,.64,.09,.1,.69-.25,.84-.23,1.04,1.49,2.03,2.87,.64,1.73,.07-.48-.9-.31-1.5-.56,.01-.17,.07-.4-.38-.22,0,.01-.14,.06-.13,.07-.43-.13-1.02,.09-1.46,.02,0-.07,.06-.11-.03-.08-.77-.12-2-.68-2.04-.71,.02-2.15-4.85,.53-5.54-2.27,.74-.45,2.4-.07,1.72-1.11-.09,.01-.21-.54-.29-.55,.76-1.01-1-1.64-2.14-2.16,.19-1.54-.84-.88-1.83-1.07,.43,.43,.77,.68,1.36,.89,.06,.08,.28-.02,.4,.13-.19,.21-.43,.43-.62,.66-.36-.56-1.36-.73-1.83-.4,.2,.44,1.14,.84,1.46,1.16,0,.03-.11,.31-.1,.34-.37,.03-1.24-.61-1.46-.5-.64,.34,.43,1.15,.95,1.14-.74,1-1.75-.47-2.65-.58-.5-.06-1.03,1.2-1.59,1.14-.42-.04-1-.82-1.45-.91-.55-.12-1.43-.31-2.05-.48-.15-.08-.15-.22-.28-.31-.34-.33-.41-.16-.3-.39,.15,.08,.18-.18,.25-.2-.11-.09-.14-.08-.21-.14,.2-.23,.67,.06,1.06,.1-.09-.19-.55-.29-.69-.45-.19,.1-.84,0-1.03,.1-.27-.68,.64-1.42,1.14-1.8-.51-.99-1.32-.38-1.9,.06,0,0,.29,.7,.28,.7-.07,0-.34-.52-.41-.45-.28,.13,.13,.36-.15,.85-.13,.22-.31,.32-.3,.54-.14,.09,.37,0,.43,.4-.01,.03-.92-.03-.94,0-.2,.38-1.11,1.61-1.55,1.51-1.35-.32,.2-1.25,.27-1.78-1.42-.03-1.26,.67-2.11,.63-.35-.19-1.04,.36-1.35,.17-.09-.44,1.29-1.48,1.03-2.11-.57,0-1.31,.69-1.73,1.01-.3-.22-.92-.45-.99-.58,1.3-1.21,.98-.27,.34-.29,.04-.17-.02-.13-.04-.24-.17,.04-.21-.02-.41,.08-.05-.07-.21-.06-.22-.18,.99,.49,1.01-.49,1.81-.7-.25-.16-2.04-2.09-2.15-2.64,.98,.27,2.12,.49,2.26,.41,.11,.1,.02-2.33-.2-2.71,1.88,1.5,1.57,1.71,3.25,3.88-.17,2.29,6.84-.43,6.19-1.54-.76-.69-1.96,.96-2.14,1.4-.03-.11-1.07-.57-1.25-.52,.25-.27,.95-.65,.33-.47-.29-.68,1.93-.5-.22-1.12-1.11,.63-.24,.57-1.46,.87-.18-.42,1.03-2.08,1.01-2.06-.13-.08-3.68-1.79-1.52-1.78-.11-.43-2.93-1.3-3.11-1.45,2.57,1.32,.81-2.33,.29-2.72,.15,.05,.09,.46,.22,.5,.03,.03,.14-.13,.15-.1,.02-.02,.24-.69,.25-.71,1.44,.46,1.42,.64,2.16,1.19,.96-1.01,.3-2.31,.82-2.82,.36,.39,.46,.49,.2,.59,0,0-.48-.65-.49-.65,.15-.14,1.14,.19,1.54,.19-.33-.51-.36-.72,.05-.41-.76-2.1-1.37,2.45-1.77-1.55,.39,1.34-.05,.2-.15-.21,.72,.84,1.97,1.95,1.99,.72,.25-.06,1.31,.17,1.6,.57,3.14-.11,.65-.3-.44-2.12,.32-.29,.5-.33-.12-.21-.13,.22-.93,.28-.99,.42-.31-.69,.15-2.07,.74-3.14,.53,1.05,2.95,5.02,3.71,5.07,.37,1.21,.21,1.4,.37,1.85,1.13,.42,.5-3.54-.67-3.36-.08,.22,.68,1.14,.71,1.22-.09,.05-1.25,.41-1.41,.59-.51-.75-.39-2.62-.23-3.47,1.24,.51-.13,1.73,1.28,1.51,.22,.46-.96-2.55-1.54-3.64,.92,.75,1.72,2.2,1.54,2.61,.15-.17,.28-.74,.43-1.02,.45-.06,.71,3.57,1.39,2.77,.12,.23,.45-1.81,.69-3.04,.02,.02-.86-.35-.83-.33,.05-.1,.66,.06,.61-.03,.1-.41-.17-.73,.02-.85,1.56,2.65-.14,.23,.49,1.92,.69-.58,.47,.27,.79,.56,.49-1.55,1.6,.22,1.87-.38-.24-.8-1.59-2.26-.57-3.34,.12-.05-.1-.4-.1-.48,.12-.1-.1,.13,.07,.05,.04,.42,.37,3.56,1.45,3.38-.36,.42-.41,.72-.71,.77,.26,.06,.04-.51,.28-.68,0,.05,.54,.77,.54,.83-.08,.06-.68-.12-.79-.05,.13,.09,.55,.11,.61,.18,0,.13,.22,.59,.23,.71-.25,.23-1.87,.04-2.21,.11,.39,.34,1.33,1.15,1.96,.93,.53-.18,.64-1.02,1.2-1.37,.09,.02-.09-.66-.02-.6,.14-.1,.47,.68,.64,.62,.06,.07-.11-.04-.07,.02,.03,.06,.62-.11,.65-.05,.16,.46-.56,.98-.91,1.32,.2,.01,.92-.23,1.14-.2,.02,.05-.7,.5-.68,.6-.12,.22,.48,1.02,.48,1.25-1.45,.2-.22,1.21,1.08,1.97,.05,.06-.28-.32-.27-.29-2.02,1.56,1.79,3.72,1.42,4.09-.5-.15-.89,.17-1.27,.52-.28-.12,.91,.22,1.43,.59-.31,.16-1.35,1.1-1.6,1.26-.34-.35-.4-.93-.41-.88-1.01,.26-.8-.18,.15,.42-.22-.14-.55,.14-.78,.13-.2-.23-.73,.03-.81-.26,.06-.15,.37-.26,.2-.23-.03,0-.44-.61-.42-.63,.88-.67,2.31-2.23,1.72-1.75-.15-.18-.81-.03-1.13-.02-.83-.76-1.48-1.86-2.76-1.5,.34,.34,.51,.58,.71,1.06-.93,.13-1.23,.6-2.18,.3-.46,.82-.05,2.04,.77,2.19,.47,.3,1.35-1,1.39,.01-.1,.06,.2,.72,.13,.8-.13-.03-.21-.66-.13-.59-.03-.01-.23,.09-.56,.24,.23,.27-.05,.93,.25,1.26-.12-.02,.3-.52,.21-.49-.65,.16-1,.02-1.5,.43,.64,1.11,1.87,.21,2.54,1.39,.39-.44,.56,.04,.99,.21,.1,.1,.44-.63,.52-.64,.09,.06-.25,1.03-.16,1.07,.14,.14,.56,.19,.75,.19,.03,0,.49-.59,.51-.58,.42,.55,.72,1.35,1.28,1.42-.08-.34-.53-.56-.68-.91,.03,0,.65-.46,.67-.47,.46,.2,.71,.34,1.19,.11,.03-.09,.19-.25,.18-.34,.19,.08,.28,.35,.47,.42-.04-.55-.7-1.08-1.07-1.43,.64-.62,1.89-.45,2.41,.34,.2-.24,.09-.53,.08-.85-.26-.09,.07-.28-.1-.37,1.35-.61,1.42-1.56,1.15-2.73,.24,.19,3.68,1.49,2.01-.17-.15,.12,.28,.4,.16,.55-.05-.07,.02-.62,.04-.77,.04-.06-.03-.19-.05-.28,.27-1.02,1.1-2.83-.66-2.09-.21,.09-.23,.65-.34,.8-.47,.02-1.35,.33-1.98,.26,.27-.08,.47-.59-.19-.29-.09-.04-.15,.03-.24-.06-.3-.71,.33-.89,.65-.91-.21-.27-.76-.69-1.09-1.01-.05-.19-.22-.58-.25-.75,.36-.06,.66-.2,1.11-.08,.05-.42-.47-.35-.4-.67-.41-.68-1.32,.27-2.08,.69-.03-.03,.28-.75,.26-.8-.03-.06-.15-.44-.15-.51,.05-.04-.41,.32-.35,.3,.13,.06,.44-.59,.58-.45-.03-.11-.07,.35-.08,.26,.5,.04,.61-.27,.89-.9-.06-.16,.44-.04,.32-.26,.27-.05,.07-.57,.41-.62,1.52-.22,.82-.21,.46-1.6,.63-.2,1.62,.98,2.21,1.35,.1-.59-.96-1.98-1.35-2.68,.09,0,.17-.03,.28-.03,.38,.08,.86-.22,1.2-.31,1.35,.18,3.33,1.26,3.49,1.32-.05-.21,1.47-1.6,1.57-1.5-1.15,.78,2.4-.28,1.94-.83-.27-.06-.77-.1-.66,.19-.13,0,.26-1.64,.57-1.81-.04,.16,.23,.42,.29,.65,.9-.2,.79-.78,.59-1.2,.22,.33,.33,.5,1.1,.03-.92-1.65,.35-3.38-.54-5.07-.34,.21-.98-.13-1.07-.51,1.49-.26,.79-1.09-.36-1.54-.04-.04-.14,.13-.21,.13-.56-.18-1.47-.68-1.87-.23,0,0-.03-.21-.07-.16-.15,.07-.51,.41-.76,.7,0,0,1.02,.72,1.02,.72,.17-.31-.4-.76-.4-.79-.02,0-.32-.89-.65-1.07,.93,.01,3.15,.29,4.91-.47,.13-.02-.05-.36,.06-.38,.19,.31,.34,1.1,.62,1.28,.98,.63,.87-.54,.96-.71,.2-.35-.16-1.11,.11-1.37,.08,.02,.14,.06,.31-.18,0,0,0-.12,0-.13,.32-.25,.96-.1,1.32-.35,.26-.11,.5-.19,.55-.18-.35,.35,.16,.35,.8,.33-.62,.25,.06,1.3-.06,2.08-.07-.09-.7-.29-.73-.32-.1-.65-1.02-.75-1.68,.07,.32,.31,.69,1.28,1.39,1.69-.08,1.04-1.17,.24-1.19,.27,.32,.3-.73,1.95-.72,1.99,.39-.09,2.44,.55,2.65,.8-.56,.8,2.51,3.18,2.69,2.88-.55,.55-.13,.33-.99,.77,.5,.95,.71-.02,.57,.96-.16,.08,.66,.34,.65,.53,0,.45,.31,1.46,.56,1.88,.26-.49,.3-1.59,.65-2.09,.7,.75,.78,1.14,1.62,1.17,.47,.49,1.03,.89,.98,.78,.3-.06,.57-.64,.85-.74,.27,.45,.13,.78,.96,.67,.61-.09,1.13-.82,1.93-.13,.1-.03-.01,.1,.1,.12,.79,1.16,1.75,.84,1.26-.43-.08-.21,.43-1.07,0-1.38,.23,.08,.69,.55,.92,.73-.23-.58-1.13-1.49-1-2.1,.24,.41,1.11,2.66,1.85,3.18,.65,.62,2.39,.32,2.19-.99-.07-.44-.75-.76-1.1-1.12,.01-.06,.17-.41,.12-.48-.03,.02-.08,.14-.1,.16-.06-.08,.12-.06,.09-.14,0-.08,.28,.01,.28-.07,.05-.17-.58-1.13-.25-1.34,.17,.11,.59,.94,.74,1.02,.5-.72,0-1.69-.41-2.14-.1-.11-.43,.04-.6-.12-.03-1.51,.23-2.84,.03-3.43,.56-2.03,4.32,1.32,3.99-2.01,.62,.19,2.12,.23,2.72,.59-.36-1.36-2.08-.45-1.64-1.87,.19,.37,.66,.48,1.09,.51-.05-.07-.13-.48-.25-1.04,.08-.11,.11,.12,.15-.02,.08,.13-.34,.16-.23,.42,.09,.39,.61,.39,.74,.33,.29,.72,.58,1.05,1.03,1.03,.21,0,.61,.11,.77-.06,.94,1.27,1.73,2.48,2.39,3.61,.03,.18-.23,.4-.2,.62,.07,.67-.11,2.55,.83,1.75,.17-.15,.43-.05,.45-.32,.83-.51,1.53-1.2,2.22-.79,.41,.76-.24,2.37,.39,3.1,.46-.21,.13-1.15,0-1.56,.02-.04,.65-.28,.67-.32,.53,.41,1.37,.7,2.04,1.1,.33-.71,.09-1.87-.43-2.08-.3-.56-.67-1.31-.68-1.5,.4,.47,.97,2.22,1.85,1.44-.15-.78-.26-2.57-.16-4.18,.18-.01,0,.39,.13,.42,.24,.06,.79-.06,.81-.06,.68-.04,1.04-.5,.81-1.23-.17-.55-1.55-.76-2.11-1.3,.07-.67,.45-1.08,.51-1.4,.44,.34,.63,.79,1.15,.91,.05-.25-.04-.74,.06-1.02,.22-.43,.99-.93,.94-1.63,.09-.09-.26-.16-.27-.1,.08-.69-.29-1.24-.92-1.49-.16-.61,.09-1.57-.15-2.18-.04-.17-.25-.14-.26-.32-.03,.05,.27-.42,.24-.36-.04-.09,.23,.28,.19,.19,0-.16-.21-.54-.31-.54-.09-.21-.46-.11-.55-.3,.05-.21,.07-.29,.19-.49,.81,.1,1.13-.96,.77-1.35,.11,0-.08,.34-.04,.38,.04-.36-.57-1-.88-1.64,.02-1.03-1.56-2.29-1.99-2.91Zm-48.19,7.28s0-.13,0-.14c.01,.02,.38,.12,.4,.13-.01,0-.39,0-.41,0Zm10.64,15.52s-.07-.06-.08-.06c0,0,.17-.3,.17-.3,0,0-.09,.36-.09,.36Zm-2.28-6.77s-.07-.12-.08-.15c.09-.03,.51,.21,.53,.24-.06,.04-.41-.12-.45-.1Zm12.28,8.19c.05-.05,.17-.17,.23-.2-.04,.06-.16,.16-.23,.2Z"/>
        </g>
        <g class="cls-1">
          <path class="cls-5" d="M105.14,55.99c.45-.73,.27-6.76-1.33-9.12-3.55,2.47-1.81,12.31-.57,16.7,.85-.31,1.46-4.93,2.18-4.04-.71,.03-.93-.24-.65-.83,.39,.07,.76,.21,1.1,.41-.13-.75-.24-2.46-.73-3.13,.06-.11,.38,.52,0,0Z"/>
          <path class="cls-5" d="M102.15,47.24c-.41,.2-.49,1.59,.17,1.73,.6-3.49,.09-3.01-.62-5.96,.94-.03,1.4,.71,1.93,.34-.39-.36-.81-.69-1.26-.98,.41-.02,.82-.04,1.23-.05-.46-2.41-2.86-2.69-2.24-4.99-1.01-1.42-1.83,1.76-1.42,1.38-1.26-.73-2.13-5.33-5.2-5.48,1.05,4.62,6.29,10.75,7.41,14.01,.01,0-.02-.05,0,0Z"/>
          <path class="cls-5" d="M84.92,44.73c-1.55,2.85,3.93,7.84,5.18,3.99,.29,.55,.75,.92,1.36,1.09,.1-.27,.95-2.32,1.18-2.48,2.79,3.69,2.26-8.26-.8-4.61,.32-2.36-3.17-8-6.44-6.61,.39,.77,1.01,1.26,1.84,1.46-.27,.18-.55,.36-.82,.54,1.87-.02,2.97,2.72,2.59,4.45,.8,.07-2.97-2.05-2.09-1.04-.04-.97,.13-1.95,.04-2.95-.05,.02-1.9,1.04-1.72,.66,.47,.91,.85,1.86,1.13,2.85-.38,.22-1.88-2.11-2.08-.69-.06,.43-2.99,3.93,.63,3.35-.67,1.23-.96,.15,0,0Z"/>
          <path class="cls-5" d="M96.7,53.02c.09-.02,.21,3.36,.22,3.34-.87,.58-1.51,.32-1.93-.78-.74,1.05,2.02,4.22-.73,3.94-1.25-4.41-6.12-1.5-7.87-3.37,.21-.13,1.05-.56,.81-.95-.7,1.66-2.02-.52-2.35,.85-.15-.21,1.71,3.97,1.05,4.44-.21-.27-.49-.4-.83-.39,.31-.45,.48-.94,.52-1.49,.02,.04-2.07,3.51-2.01,4.01,.29-.11,.58-.23,.87-.35-2.14-2.42-.33-1.71,.16-5.69-.67,.51-.93,.49-.79-.06-1.09,.47-2.16,.98-3.2,1.54,.57-.25,.95-.66,1.15-1.24-1.39-.04-.99-.25-.83-1.73,.66,.37,1.34,.38,2.03,.05,.18-.63-.05-1.08-.68-1.35,.45-.09,1.43,.21,1.9-.72-1.08-.37-3.31-.82-3.48-3.02-.82-.04-1.34,.33-1.56,1.11,.66-.11-.83-3.66-.8-4.03-.96,.03-3.74,.48-2.9,2.33-.95-1.45-1.67,.76-1.61,1.4-.97-.69-2.61-1.86-3.17-2.33-.5-.42-1.1-3.91-2.05-2.71-.1-3.06,1.16-3.23-1.27-5.4,1.19-.82,.86-2.8-1.32-2.98-.21,2.24,.8,.99-.93,1.59,.1-.7,.47-1.2,1.12-1.5-1.41,.88-1.93,.37-1.54-1.55-3.91-.1,3.09,.55-.33-1.1-1.05,.69-1.95,1.55-2.7,2.58-.63-2.2-2.02-.59-2.06-2.4-.1,1.07-.62,1.77-1.57,2.11-.28-.92-.05-1.7,.7-2.34-6.13,1.53,.07-1.83-2.17-2.17,.01,.53-1.63,2.77-1.42,2.44-1.7-.19-4.46,1.39-5.62,1.54,2.27-.3,.1,5.49,.08,5.41,.16-.05,.3-.15,.4-.28-.33,.53-.16,.74,.51,.63,.03-.06-1.13,1-1.15,.61,.06,.99,1.66,.7-.05,1.39,.47-.72,.98-.11,1.55,1.84-.86,0-2.15,.15-2.23,1.4,.02-.34,3.04,4.29,3.11,4.31-1.83-.31-4.43,1.41-2.2,3.09,1.15-1.63,2.1-.9,3.28-1.09,.13,2.39-2.33,.48,.16,3.96,0-2.82,2.12-1.72,3.58-1.71-.51,.31-1.06,.46-1.66,.48,1.48,.8,1.68,1.57,.58,2.31-1.41-.58-.63-1.8-1.84-.09-1.18-1.16-.67-1.34-1.99-1.31-.96-1.01-.74-1.84-.62-2.64-.39,.28-.81,.42-1.07,.61-.42-.33-3.37-2-4.17-1.84,2.6,1.19-1.02,2.12-1.23,2.23,.41,.99,1.22,3.14,.5,2.62,.59-.07,0,.18-.11-.27-.21,1.49-.25,1.86-.12,1.1-.48-.17-1.58,1.72-1.67,.05-1.09-.14-1.91-.29-2.8-.9,.6-.85,1.17-1.72,1.71-2.62-1.3,1.65-2.35,1.95-3.16,.89,.75-.92,5.6-2.43,4.69-4.12,.43-.37-3.37-1.3-3.39-1.32-2.6-3.53-1.15,.19-1.28-4.26-.09-2.88,2.57-4.44,1.55-8.33-2.09,1.08-.71,2.96-2.04,3.92-.79-1.48-1.16-6.53,.54-6.56-.59-.29,.11,.12,.09-.04-.22-.49-.57-.75-1.05-.76,.43-.01,.5,.14,.22,.45,.92-.38-1.93-5.79-2.25-6.23,0,.9-.34,1.65-.98,2.23-.1,.06-.1-3.47-1.31-2.95-.06,.28,1.03,1.89,.96,2.3-.37,0-.74,.02-1.11,.05,.43,.36,.36,2.62-.69,1.89,4.13-4.68-4.41-3.68-3.83-3.31,.73,.35,1.5,.55,2.31,.58-.19-.98-3.79,1.42-4.28,2.18-.05-.18-1.4-2.9-2.06-2.91-1.02-.01-.42,1.62-.41,1.93,.38,.86-3.25-1.47-3.01-1.67-1.45,1.17-.3,8.35-.99,8.57,0-1.44-.32-2.8-.94-4.09,.55,1.33,.37,2.27-.55,2.84,.14-1.11-.21-1.25-1.05-.4,0,0,.72,1.95,1.1,1.65-4.24-3.62-.62,2.26-1.03,2.93-.39-.52-.98-2.22-2.23-1.75-.03,.01,.18,1.46-.07,1.91,1.1-.02,2.14-1.27,1.5,1.3-1.26-.17-1.09-1.3-2.55-1.53,.18-.13,.14-.06-.11,.21,2.1-3.28,.13-7.85,1.45-9.82,.77,.36,3.39-2.76,3.69,1.04,1.31-1.01-.54-3.99-.53-5.17,0-.38,5.39-2.45-.35-.73,.47-.25,.42-.13-.16,.35,5.92-.23-5.42-1.88-3.09-.39,0-1.05,.47-1.82,1.43-2.3-1.5,.61-.53-3.4,.34-5.01-4.27,5.07-6.69,12.41-10.16,17.16-.25-.2-.5-.4-.75-.6-.69,1.02,.15,5.08-.55,5.79-.66-.06-1.04-.36-1.14-.9,.05-.24,1.64-.92,1.05-.19-.24-.31-.49-.61-.73-.92-.04-.2-.63,5.25,.23,4.95-.1-.32-.2-.64-.29-.96,.57,1.32,1.25,1.04,2.04-.85,.54-.32-.03,4.08,.21,3.85-1.04-1.39,1.14,1.24,.31,2.67-1.53,.46-1.54-4.43-2.07-2.28-.57-1.08-1.05-2.2-1.45-3.35,.41,1.33,.13,1.65-.86,.96,.04,.18-.24,6.57-.16,6.57,.02-.36,.08-.71,.17-1.05,.24-.06-2.1,7.79-1.82,8.33-.33-.63,.96,2.28,.72,2.05-.12-1.25,.15,.22-.41-.58-1.63,1.32,5.71,16.81,5.54,17.55,.66-.02,.33-.12,.92-.97,2.16,3.47,.84,2.69-.39,2.63,.34,.12,.68,.23,1.01,.35-.4,.04-.67,.29-.79,.73-.31,.06,6.69,5.82,6.76,6-.61-.7-1.12-1.47-1.54-2.3,.92-.42,1.69,1.94,2.35,2.26-.72,0-.73-.3-.02-.93,.46,.97-1.29,3.25,0,3.88,.61-1.36,1.64,.6,2.77,1.45-.13-.71-.72-3.74-.92-4.26,2.69,.97,3.41,.83,6.02,3.45-2.51-2.52-.05,4.81,.03,4.99,1.43,3.15,3.02,4.27,5.6,5.77-1.19-1.57,1.21,.31,2.51,.39-.05-2.25,.11-2.08,.35-3.24-.05,.24,2.4-1.3,1.22-2.23-.54,.14-1.06,.32-1.57,.54-1.08-1.2-.78-1.87,.91-2.01-.08-.67-5.99,.74-4.66-1.81,.36-.69,2.98-1.74,3.73-1.21,.07-1.84-1.97,.05,.13-.91-.4-1.39-2.73-2.04-.45-1.04-.13-.67-.1-1.33,.1-1.97,1.81,.47,3.37,3.73,1.91,4.78,1.02-.73,3.06,.11,3.83,1.12-.21,.68-.65,1.15-1.32,1.41-1.42-1.56-.1-.71-.62-1.87,1.92,1.1,1.44,3.39,3.4,4.29,.39,.18,8.59,.36,9.64-.86-1.26,.57,.84-3.24,.63-3-.72,.1-1.32,.45-1.78,1.02,.93,1.09-.5-7.76-.13-6.29,0,.03-3.76-.8-4.28-1.07,.92-.2,1.81-.5,2.67-.91,.29-1.03-1.37-.56-1.78-1.03,.56-.4-3.25-6.21-4.93-5.53-.42,.97-.2,1.6,.65,1.91-1.28,3.21,.27,3.01,.63,6.28-.33-2.98-9.71-4.39-9.26-7.9,3.4-.59,1.84-3.92-.57-5.48,.28,.65,.7,1.18,1.25,1.59-1.72,.84-.63-1.07-2.33-.66,.19,4.02,1.64,.65-.46,.89-.4,.59-.25,1.06,.46,1.41-1.95,1.24-8.74-5.84-5.96-4.3-.25-.65-.73-.97-1.45-.96,.32-.75,.88-1.16,1.69-1.25-.23-2.3-2.5,.63-2.62,1.19,.36-.39-3.01,.34-2.81,.48-.33-.82-.03-1.34,.88-1.55-.61-.26-2.99,.08-3.45-.53,.64-.44,1.21-.97,1.69-1.59-1.26,.79-2.14,.59-2.64-.61,2.22-.88-.33,.23-.07-.71,.63,.37,1.26,.37,1.9,.01-.51-1.03-.85-2.11-1.02-3.24,.59,.5,1.23,.9,1.92,1.21,.41-.82,.67-1.68,.78-2.59,1.18,2.08,.96,4.71,2.64,6.08,.56,.46,5.35,.84,5.15-.43,.11,.22-3.3-.43-3.41-.43,.09-.05,1.36-.64,1.39-.7,.41-1.08-2.18-.44-2.35-.46-.06-2.18,1.47-.32,.6-2.95-.37-1.1-.99-1.41-2.01-3.29,2.18,2.52,.46-2.55,1.26-1.87-.47-1.11,1.87,.76,2.21,1.31,.7-.69,1.28-1.46,1.76-2.32,.03,.89-.05,.84-.24-.15-.09,.03,1.94,1.07,1.53,.38,.06-2.62-2.32,2.48-1.06-2.09-.12,.82-.14,.74-.06-.25,.11,.33,3.52,3.58,4.27,2.9,0,0-.93-3.97-2.19-2.73,.27-1.1,.87-1.98,1.8-2.64,.26,2.87,1.35,5.18,1.25,7.94,.48,.44,2.08-3.02,.59-3.37,0,.48,.06,.94,.21,1.4-.5-.03-1-.02-1.49,.03,.03-1.2,.37-2.31,1.02-3.31-.07,.73,.14,1.36,.63,1.87-.1-1.31,.05-2.62-.1-3.95,.55,.95,.71,1.95,.48,2.99,2.39-1.32,.29,2.7,1.03,2.29-.13-1.28,2.43-1.69,1.08-3.19,.57,.4,.86,.21,.88-.59,.02,.13,.16,5.05,2.13,3.12,.13-1.73,.32-2.22,.75-3.79-.67,.2-.45,3.71-.27,3.67-.81,1.55,.45,.05-.06,1.76-.71-.16-1.39-.4-2.06-.71,.71,1.39,3.97,1.88,3.24,.2-.11,.03,1.79,.98-.4,1.89,.47,.23,.4,3.18,.4,3.73-2.83,.83,1.17,3.32-1.51,4.34,.43,.29,.79,.65,1.1,1.08-.64,.18-1.28,.37-1.91,.58-.31-.74-.98-1.78-.07-.52-.58,0-1.04-.23-1.4-.7,.58-.61,.81-1.39,2.31-1.87-.06-.17-2.72-2.81-3.01-2.84,.74,1.76-.86,1.53-1.83,.72-1.85,1.53,2.03,3.11,1.01,3.63,.55,.41-1.95-2.69-.73,.69,.77-.61,.39-.78-1.16-.54,.32,2.06,2.51,2.16,3.36,2.39,.47,.66-.24,1.9,1.43,2.84,.22-1.68,1.08-1.29,2.1-.43-.18,.59,.75-4.58,1.62-.52,.69-.38,2.32-2.38,2.44-3.25,.52,.61,1.14,1.09,1.85,1.45-.56-.12,.84-1.5,1.36-2.7-1.68,3.86-5.4-5.87-2.26-3.51,.8-1.54-2.23-.9-2.27-.89-.46-.88,1.54-.81,.14-1.02,.78,.77,3.54-1.64,3.63-2.37,.71,.53,1.22,1.22,1.54,2.07,.1-1.01,0-2.01-.28-2.98,.09,.03,8.68,3.25,8.22,1.87,3.3,2.34,3.13-13.56,1.09-8.26,.1-.08-.18-1.98-.3-2.12,1.68,.7,3.55,.77,4.84,1.04-.35,1.08-.06,1.63,.87,1.67,1.99-1.97,1.32-2.12,3.85-1.17-.51,.52-.77,1.16-.79,1.91-.23-.88-1.32-1.57-2.11-1.12,1.7,3.84-1.4,.67-1.89,3.48,1.01,.16,3.72,5.25,3.57,5.38-1.34,.6-1.06,2.21-.76,4.14,3.17-2.78,3.59,3.26,7.32,3.46,1.49,.08,.05-4.08,1.61-1.26-.22-.76-.27-1.53-.16-2.32,.2,1.2-.18,4.25,1.76,4.37,2.43,.15-.63-5.36,1.65-2.76,1.89-1.27-1.41-3.79,1.88-5.72,.96-.57,4.97,0,5.9,1.21-.58-.68-.86-1.46-.83-2.34,.3,2.65,1.14-.21,1.1-.15,.15,.77,1.99,6.5,2.18,6.93,1.35,3.1,.83-.43,2.76,2.13-.36,.98-.61,1.98-.75,3.02,1.98-.08-.71-4.25,2.75,.27,1.2-1.16-.18-2.38,.26-3.73-.14,1.03,.25,1.7,1.17,2.02,.31-1.36,.76-2.68,1.35-3.94-.14-.04,1.73,2.43,1.91-.16-.4-.73-.89-1.39-1.47-1.98,0,0,5.79-6.81,5.07-8.79-.07-.03-.9-3.78-1.17-4.95-.06,.02,.17,.73,0,0Zm-46.61-10.98c.08-.13,.82,.26,0,0,0-.01,.01,0,0,0Zm4.17,18.34c-.44-.18,1.04-.46,0,0,0,0,0,0,0,0Zm.34-7.13c.02,.18,.7-.12,0,0,0-.02,.04,0,0,0Zm8.28,12.14c.07-.03,.22-.09,.28-.1-.05,.04-.21,.09-.28,.1Z"/>
        </g>
      </g>
    </g>
  </g>
</svg>